<?xml version="1.0" encoding="UTF-8" standalone="no"?>
<!-- Created with Inkscape (http://www.inkscape.org/) -->

<svg
   xmlns:dc="http://purl.org/dc/elements/1.1/"
   xmlns:cc="http://creativecommons.org/ns#"
   xmlns:rdf="http://www.w3.org/1999/02/22-rdf-syntax-ns#"
   xmlns:svg="http://www.w3.org/2000/svg"
   xmlns="http://www.w3.org/2000/svg"
   xmlns:sodipodi="http://sodipodi.sourceforge.net/DTD/sodipodi-0.dtd"
   xmlns:inkscape="http://www.inkscape.org/namespaces/inkscape"
   id="svg2"
   version="1.1"
   inkscape:version="0.91 r13725"
   width="512"
   height="768"
   viewBox="0 0 512 768"
   sodipodi:docname="vowel.svg"
   inkscape:export-filename="/home/ben/Code/vowel/src/assets/icons/vowel.png"
   inkscape:export-xdpi="90"
   inkscape:export-ydpi="90">
  <metadata
     id="metadata8">
    <rdf:RDF>
      <cc:Work
         rdf:about="">
        <dc:format>image/svg+xml</dc:format>
        <dc:type
           rdf:resource="http://purl.org/dc/dcmitype/StillImage" />
        <dc:title></dc:title>
      </cc:Work>
    </rdf:RDF>
  </metadata>
  <defs
     id="defs6">
    <filter
       inkscape:label="Sharpen More"
       inkscape:menu="Image Effects"
       inkscape:menu-tooltip="Sharpen edges and boundaries within the object, force=0.3"
       style="color-interpolation-filters:sRGB;"
       id="filter4138">
      <feConvolveMatrix
         targetY="1"
         targetX="1"
         in="SourceGraphic"
         divisor="1"
         kernelMatrix="0 -0.3 0 -0.3 2.2 -0.3 0 -0.3 0"
         order="3 3"
         result="result1"
         id="feConvolveMatrix4140" />
      <feBlend
         in2="SourceGraphic"
         mode="normal"
         result="result2"
         id="feBlend4142" />
    </filter>
  </defs>
  <sodipodi:namedview
     pagecolor="#ffffff"
     bordercolor="#666666"
     borderopacity="1"
     objecttolerance="10"
     gridtolerance="10"
     guidetolerance="10"
     inkscape:pageopacity="0"
     inkscape:pageshadow="2"
     inkscape:window-width="1366"
     inkscape:window-height="710"
     id="namedview4"
     showgrid="false"
     showborder="false"
     inkscape:zoom="0.5"
     inkscape:cx="402.43071"
     inkscape:cy="375.63918"
     inkscape:window-x="0"
     inkscape:window-y="30"
     inkscape:window-maximized="1"
     inkscape:current-layer="svg2" />
  <path
     style="fill:#000a4b;fill-opacity:1"
     d="m 278,740.89172 c -54.42339,-6.15937 -105.11916,-38.4858 -133.39509,-85.0601 -25.71896,-42.36261 -33.04932,-92.06736 -20.66276,-140.10726 8.06253,-31.26961 23.99928,-58.86284 47.49498,-82.23382 5.53458,-5.5052 13.10037,-12.22949 16.81287,-14.94287 3.7125,-2.71337 6.75,-5.24152 6.75,-5.61809 0,-0.37658 -0.64607,-1.22088 -1.43572,-1.87623 -0.78965,-0.65535 -1.72324,-2.62295 -2.07466,-4.37245 -1.12834,-5.61738 -1.59772,-6.6809 -2.9486,-6.6809 -2.00863,0 -2.77731,-4.75155 -1.43182,-8.85069 2.04691,-6.23607 5.50012,-10.84127 8.57137,-11.4308 3.92238,-0.75291 4.99234,0.508 5.7799,6.81141 l 0.68344,5.47008 4.17805,-0.006 c 5.2752,-0.008 25.21727,-5.20774 30.69958,-8.00461 l 4.14202,-2.1131 4.89981,2.56205 C 251.70891,387.38993 253,387.5876 253,385.5 c 0,-1.63938 2.04092,-2.00672 3.55,-0.63896 0.53163,0.48184 2.38126,0.46925 4.2,-0.0286 2.47528,-0.67756 3.25,-1.4418 3.25,-3.20604 0,-3.56212 3.15903,-5.63989 10.13604,-6.66673 3.50018,-0.51514 10.77545,-1.58162 16.16728,-2.36995 10.43989,-1.52641 12.97214,-2.72249 12.49494,-5.90189 -0.48094,-3.20428 -5.10287,-5.87678 -11.34441,-6.55957 -5.61693,-0.61446 -6.58831,-1.27462 -7.82795,-5.31999 -0.70749,-2.30875 -5.26804,-5.15957 -7.11818,-4.44961 -1.04954,0.40275 -1.5122,2.03157 -1.52246,5.35996 -0.0236,7.66207 -1.32772,9.12183 -11.98526,13.41584 -5.225,2.1052 -10.89336,3.83616 -12.59636,3.84658 -1.703,0.0104 -4.59437,0.76627 -6.42528,1.67964 -2.5804,1.28728 -6.26876,1.66753 -16.40363,1.69114 -18.36177,0.0428 -26.30146,-0.97268 -27.67524,-3.53962 -0.78115,-1.4596 -0.77895,-2.33274 0.008,-3.11956 C 200.69755,368.90245 201,369.07058 201,370.3 c 0,2.29899 2.71699,2.16706 3.45808,-0.16792 0.82235,-2.59099 -0.97568,-6.85641 -3.1508,-7.47455 -0.994,-0.28249 -4.56244,-0.80852 -7.92985,-1.16897 -8.20081,-0.87781 -11.9748,-3.27959 -13.38552,-8.51859 -0.91806,-3.40944 -1.74726,-4.36734 -4.80082,-5.54601 -11.28754,-4.35699 -15.19331,-8.68311 -15.18735,-16.82184 0.002,-3.33342 0.69576,-6.23715 2,-8.37629 1.09794,-1.80079 1.99626,-3.67839 1.99626,-4.17245 0,-1.64749 -6.35979,-2.97077 -22,-4.57754 -29.43672,-3.02413 -53.35415,-8.07711 -64.12421,-13.54736 -1.99331,-1.01243 -4.80818,-3.32301 -6.25526,-5.13463 C 66.69195,288.6237 65.49861,287.72396 57,283.77043 44.7283,278.06167 42,275.77011 42,271.17161 42,267.22721 39.73609,263 37.62363,263 c -0.69463,0 -2.22701,-1.10875 -3.40529,-2.46389 -1.17828,-1.35515 -4.40943,-3.61273 -7.18033,-5.01685 -5.54136,-2.80802 -5.36997,-2.45739 -5.46844,-11.18724 -0.056,-4.95986 -0.51028,-6.63737 -2.31957,-8.56445 -3.29323,-3.50761 -2.88623,-7.19801 1.25,-11.33424 2.92578,-2.92577 3.5,-4.21273 3.5,-7.84422 0,-6.11956 1.30751,-6.84664 12.00538,-6.6759 8.69475,0.13876 9.05593,0.0557 9.94648,-2.28659 1.51619,-3.98788 6.55312,-4.98691 21.47268,-4.25892 7.1915,0.3509 17.12546,1.05474 22.07546,1.56408 11.527,1.1861 73.85406,1.27937 82.81864,0.12393 4.65523,-0.6 8.00372,-1.7001 10.55375,-3.46728 C 186.0452,199.38967 187.69086,199 193.80375,199 c 7.20065,0 9.69086,1.42827 4.44625,2.55016 -8.10213,1.73314 -9.52663,4.60066 -3.53015,7.10615 5.1826,2.16542 22.7863,1.55252 26.56747,-0.925 3.35723,-2.19974 4.51709,-2.17272 10.13672,0.23613 2.52442,1.08209 8.3084,2.6165 12.85329,3.4098 4.54489,0.79329 12.27362,3.10237 17.17494,5.13128 7.1528,2.96091 9.68121,3.56585 12.81167,3.06527 3.39109,-0.54226 4.51827,-0.16993 8.63565,2.8525 5.32876,3.91167 14.10041,12.94583 14.10041,14.5224 0,0.5689 -0.9,1.59642 -2,2.28338 -2.89745,1.80949 -2.46123,2.7701 1.25,2.75262 4.17191,-0.0197 5.46539,-0.89336 5.89918,-3.98469 0.31172,-2.22136 0.81063,-2.49141 4.47632,-2.42289 6.03385,0.11278 10.3745,2.17202 10.3745,4.92177 0,1.24092 0.675,2.81643 1.5,3.50112 1.0387,0.86205 1.5,3.15494 1.5,7.45578 0,3.41599 0.28745,6.49834 0.63878,6.84967 0.35133,0.35133 1.96086,-0.47367 3.57673,-1.83333 1.61587,-1.35967 3.71741,-2.47212 4.67009,-2.47212 0.95268,0 2.60565,-0.66069 3.67327,-1.4682 1.83849,-1.39056 1.7724,-1.46987 -1.24985,-1.5 -3.54121,-0.0353 -5.16968,-1.48756 -2.72149,-2.42702 2.9117,-1.11732 6.17368,-0.61873 8.55169,1.30712 1.92297,1.55734 2.32858,2.76276 2.18714,6.5 -0.14931,3.94546 0.1002,4.5881 1.78139,4.5881 1.07526,0 2.21404,-0.675 2.53062,-1.5 0.80157,-2.08884 2.33495,-1.8737 5.08953,0.7141 2.01823,1.89603 2.64712,2.03279 4.37776,0.95199 1.76145,-1.10005 2.4538,-0.88206 5.39194,1.69766 1.85404,1.62787 4.34511,3.26894 5.53569,3.64682 1.71663,0.54483 2.07657,1.28757 1.7389,3.58824 -0.23419,1.59565 -0.0148,2.90119 0.48753,2.90119 2.04926,0 9.67551,-6.42942 10.77513,-9.08413 0.64918,-1.56726 1.80691,-3.36958 2.57274,-4.00516 0.76582,-0.63558 1.39241,-1.5505 1.39241,-2.03315 0,-1.63862 -4.0489,-0.88647 -9.15408,1.70052 -3.06491,1.55311 -5.93409,2.34981 -7.21676,2.00391 -1.17104,-0.31579 -6.17916,-4.00069 -11.12916,-8.18866 -11.24213,-9.51147 -19.7553,-15.163 -24.05612,-15.96984 -2.03091,-0.381 -6.53987,-3.2966 -11.63034,-7.52047 -7.20206,-5.97597 -8.71463,-6.82547 -11.31354,-6.35394 -2.23268,0.40507 -5.17406,-0.51963 -11.5,-3.61536 C 287.45819,216.24298 274.81245,211 273.45242,211 c -0.27606,0 -0.92965,1.125 -1.45242,2.5 -1.22849,3.23117 -3.78204,3.20348 -5.0207,-0.0544 -1.90616,-5.01359 -16.09654,-9.04623 -41.9793,-11.92975 -15.99275,-1.7817 -18.61053,-2.31618 -17.35066,-3.54249 1.02073,-0.99355 11.27288,-1.69794 37.12245,-2.55057 17.37335,-0.57304 19.36962,-0.81846 20.2649,-2.49131 0.64175,-1.19911 0.75346,-14.97682 0.31575,-38.94114 l -0.67736,-37.08548 -2.85894,-2.03574 c -1.57241,-1.11966 -3.53067,-3.64343 -4.35168,-5.60837 -0.821,-1.96495 -3.89717,-6.53995 -6.83592,-10.16667 -2.93875,-3.62672 -6.13761,-7.83682 -7.10857,-9.35578 -0.97096,-1.51896 -2.94766,-3.01718 -4.39268,-3.32937 -1.44501,-0.31219 -5.17576,-1.66463 -8.29055,-3.0054 -3.88778,-1.673522 -9.05004,-2.758686 -16.46615,-3.461366 C 203.42543,78.905063 202.04417,78.293558 202.01531,74.472241 202.00689,73.356973 201.1,71.673878 200,70.732028 197.31287,68.43124 197.47878,67 200.43261,67 c 1.54364,0 2.66156,0.721348 3.05911,1.973915 C 204.5816,72.40781 208.9096,75 213.55307,75 218.80999,75 221,74.226054 221,72.36826 c 0,-1.898386 3.25043,-3.021709 11.2101,-3.874117 7.53945,-0.807407 11.76726,0.21874 19.05492,4.6249 C 253.88579,74.703569 256.85354,76 257.86004,76 260.71397,76 263,79.285746 263,83.38776 c 0,4.84089 1.42261,3.86667 3.50391,-2.399522 0.91125,-2.743531 1.95816,-4.986556 2.32646,-4.9845 1.31123,0.0073 7.16963,3.982519 7.16963,4.864932 0,0.493937 -0.9,1.13342 -2,1.42108 C 270.56155,83.18892 271.81227,85 275.87169,85 c 4.67481,0 10.42623,3.72889 36.62831,23.74771 13.30938,10.16858 18.47248,14.71901 19.81312,17.46202 0.99721,2.04035 4.03471,5.56975 6.75,7.84311 2.71528,2.27337 4.93688,4.76384 4.93688,5.53438 0,0.77055 3.75586,3.82393 8.34635,6.7853 4.5905,2.96137 8.62637,6.11402 8.96862,7.00589 0.91421,2.38239 4.00296,1.97653 6.68503,-0.87841 2.82991,-3.0123 5,-3.22931 5,-0.5 0,3.8927 4.31165,2.05376 5.37583,-2.29282 0.79064,-3.22935 2.58492,-4.18483 6.16923,-3.28523 3.62755,0.91046 3.98386,2.92106 1.52894,8.62768 -1.18537,2.75546 -1.88539,5.44653 -1.55559,5.98015 0.32979,0.53362 2.07832,0.97022 3.88562,0.97022 3.31341,0 6.59597,2.46528 6.59597,4.95374 0,0.88606 -0.88514,1.11923 -2.7971,0.73684 -4.08291,-0.81658 -5.63942,0.49792 -4.6797,3.95209 0.43665,1.57153 0.83505,3.38568 0.88535,4.03145 0.0503,0.64576 1.84508,2.69171 3.9884,4.54655 l 3.89694,3.37245 -2.39694,4.24281 -2.39695,4.24282 3.5,2.91916 3.5,2.91917 -1.7543,3.12999 c -0.96487,1.7215 -1.50081,3.54016 -1.19098,4.04146 0.92246,1.49259 3.27486,1.03738 4.33331,-0.83853 1.61268,-2.85816 3.03356,-0.29762 3.76999,6.79378 0.61744,5.9457 0.53886,6.3477 -0.99378,5.08378 C 401.74891,215.37271 401,214.13521 401,213.37756 401,212.50893 399.87448,212 397.95349,212 c -2.39131,0 -3.41287,-0.6783 -4.75,-3.15393 -2.24831,-4.16262 -9.3924,-13.0823 -10.86951,-13.57098 -0.64131,-0.21217 -1.31631,0.32538 -1.5,1.19457 -0.26537,1.25569 -2.13174,1.66302 -9.08503,1.98279 l -8.75105,0.40245 -9.20559,-6.04472 c -10.93279,-7.17885 -13.84993,-8.2984 -23.96564,-9.19759 -9.53276,-0.84738 -18.84698,-3.20501 -20.82667,-5.27169 -1.35625,-1.41584 -0.9729,-1.50569 4,-0.9376 3.025,0.34557 10.73744,0.90591 17.13875,1.24519 l 11.63876,0.61688 0.52273,-4.38268 c 0.2875,-2.41048 0.84304,-5.63596 1.23452,-7.16773 0.51201,-2.00333 0.22051,-3.3279 -1.03854,-4.71913 -1.58823,-1.75498 -1.63644,-2.66614 -0.52063,-9.83892 0.91216,-5.86361 0.9415,-8.44331 0.11362,-9.99022 -1.62584,-3.03791 -6.82162,-6.71737 -14.22741,-10.07531 -3.57506,-1.62101 -8.46664,-4.59028 -10.87017,-6.59837 -2.40353,-2.0081 -6.42241,-4.70345 -8.93084,-5.98969 -2.50844,-1.28623 -8.14883,-4.85066 -12.53422,-7.92096 -9.71228,-6.79976 -10.86937,-6.97415 -10.35308,-1.56036 0.31395,3.29207 0.10616,3.91382 -1.14497,3.42591 -2.80635,-1.09442 -3.40709,-0.96008 -3.80171,0.85013 -0.46859,2.14953 1.38694,4.60461 4.32412,5.72132 1.77338,0.67424 2.48082,2.55396 4.19478,11.14583 1.1339,5.68414 1.85343,10.67231 1.59895,11.08481 -0.25448,0.4125 -1.35026,0.75 -2.43506,0.75 -3.15061,0 -3.19147,2.25942 -0.14599,8.07369 1.62426,3.10094 3.82186,10.14021 5.12816,16.42631 1.25724,6.05 2.95813,12.9125 3.77977,15.25 l 1.49388,4.25 6.35219,0 c 7.49167,0 10.19991,0.89938 17.21808,5.71797 2.87963,1.97712 7.15463,3.91129 9.5,4.29816 2.34537,0.38687 5.50181,1.04029 7.01431,1.45204 2.34896,0.63947 2.75,0.44978 2.75,-1.30074 0,-4.57385 6.02805,-3.92814 8.01056,0.85807 0.69506,1.67801 2.10263,3.49989 3.12794,4.04862 1.02531,0.54873 2.96366,3.16738 4.30746,5.81923 1.34379,2.65185 3.67529,6.28573 5.18112,8.0753 1.88796,2.24372 2.97119,4.97323 3.48953,8.79284 0.41341,3.04648 1.3438,5.93532 2.06753,6.41963 1.29546,0.86692 4.67134,0.6238 10.05372,-0.72403 2.19912,-0.55069 3.43578,-0.0728 6.28479,2.42865 1.95082,1.71285 4.35502,3.11426 5.34267,3.11426 0.98765,0 3.99126,1.11152 6.6747,2.47005 5.0843,2.574 6.411,2.20638 6.44467,-1.78579 0.0202,-2.39106 1.81936,-5.68426 3.10552,-5.68426 0.56092,0 2.11441,2.475 3.45221,5.5 1.3378,3.025 2.90596,5.5 3.48481,5.5 0.57884,0 2.8023,-0.89271 4.94101,-1.9838 l 3.88856,-1.98379 1.92752,2.64607 c 2.54389,3.4922 5.50345,2.61299 4.73457,-1.40652 l -0.53024,-2.77196 1.46057,3 c 2.01996,4.14898 1.89437,6.24575 -0.44922,7.5 -2.96769,1.58826 -2.45673,3.98396 2,9.37721 2.2,2.66231 4,5.26523 4,5.78427 0,0.51904 -0.73276,4.16543 -1.62836,8.10308 -2.09768,9.22279 -1.39821,19.57125 2.05432,30.39283 2.60239,8.15692 6.26184,14.28876 15.60565,26.14914 2.91694,3.70256 4.96839,7.32714 4.96839,8.77836 0,1.75527 2.58616,5.14506 8.92125,11.69347 17.53176,18.12207 26.0316,31.64729 26.87021,42.7567 0.38169,5.05634 0.12656,5.91695 -2.94989,9.95044 -1.85224,2.42845 -5.83683,6.40507 -8.85464,8.83693 C 467.33626,419.21095 464,422.66535 464,425.34007 c 0,3.25433 5.36789,9.49787 9.73438,11.32231 2.41596,1.00945 3.26562,1.99607 3.26562,3.79202 0,3.84098 -1.86148,4.02824 -6.63014,0.66698 -5.06835,-3.5725 -6.20404,-3.83179 -6.00875,-1.37186 0.0885,1.11412 -0.68921,1.86718 -2.14124,2.0735 -3.1366,0.44568 -6.77602,-3.6948 -12.2434,-13.92903 C 444.88211,418.35799 439.64465,412 436.88364,412 c -2.53607,0 -2.44288,0.47898 1.76273,9.06002 6.37965,13.01693 12.52899,21.02748 19.64016,25.58462 6.99666,4.48376 11.46415,9.21283 12.14829,12.85959 0.77504,4.13137 -0.75222,10.43123 -3.28801,13.5628 l -1.82709,2.25636 -5.72243,-3.0994 c -3.14733,-1.70467 -5.56185,-2.78993 -5.3656,-2.4117 6.62796,12.7738 13.34582,27.69555 15.62695,34.71065 14.57269,44.81508 11.5576,92.74557 -8.45933,134.47706 -24.32862,50.72055 -70.23371,87.18329 -124.42225,98.82947 -18.53418,3.98336 -40.67871,5.13316 -58.97706,3.06225 z m 47.85388,-16.33927 C 359.84213,718.46784 387.87514,704.3488 412.32622,681 c 19.81082,-18.91773 33.32031,-39.76855 42.17328,-65.0911 12.40612,-35.48581 12.4006,-73.146 -0.016,-108.81783 -14.43369,-41.46693 -45.04207,-75.58859 -84.95178,-94.70267 -19.55485,-9.36547 -35.55523,-13.64678 -58.1988,-15.57259 C 244.9327,391.16854 180.72225,427.48162 150.981,487.5 c -10.02337,20.22734 -14.57984,35.50577 -16.91272,56.71059 -2.51687,22.87713 0.16019,47.62915 7.54808,69.78941 4.19013,12.56846 15.71976,34.72263 23.41921,45 12.23133,16.3266 29.1302,32.14684 45.23173,42.34464 19.97761,12.65269 46.47352,21.86062 71.0846,24.7035 9.84597,1.13733 34.40473,0.31193 44.50193,-1.49569 z M 271.75,710.33772 c 0.6875,-0.27741 1.8125,-0.27741 2.5,0 0.6875,0.27741 0.125,0.50439 -1.25,0.50439 -1.375,0 -1.9375,-0.22698 -1.25,-0.50439 z M 258.63837,707.5 c 0.31659,-0.825 0.97746,-1.5 1.46862,-1.5 0.49115,0 0.89301,0.675 0.89301,1.5 0,0.825 -0.66088,1.5 -1.46862,1.5 -0.89459,0 -1.24363,-0.58629 -0.89301,-1.5 z M 328,708.70714 c 0,-0.32412 4.90114,-3.05299 10.89141,-6.06416 5.99028,-3.01117 13.78769,-7.30402 17.32758,-9.53967 5.77707,-3.64855 7.59174,-4.22598 17.7206,-5.63871 6.20644,-0.86565 11.48853,-1.36981 11.73798,-1.12037 0.68952,0.68953 -17.30863,11.59804 -24.67757,14.95684 -10.72321,4.8877 -17.08871,6.75046 -25.25,7.389 -4.2625,0.3335 -7.75,0.34118 -7.75,0.0171 z m -79,-4.14812 C 249,703.70156 249.45,703 250,703 c 0.55,0 1,0.42344 1,0.94098 0,0.51754 -0.45,1.2191 -1,1.55902 -0.55,0.33992 -1,-0.0835 -1,-0.94098 z m 56.96512,-1.35598 c 1.90581,-1.48667 7.26113,-5.72907 11.9007,-9.42755 l 8.43558,-6.7245 7.5993,0.63533 c 13.74352,1.14903 13.85758,1.39063 3.0993,6.56471 -10.62014,5.10765 -29.04724,11.77397 -32.34678,11.70201 -1.8964,-0.0413 -1.73992,-0.36936 1.3119,-2.75 z M 283.5,703.28693 c -1.1,-0.26458 -2.39485,-0.85473 -2.87744,-1.31144 -1.19822,-1.13394 14.43856,-19.93422 16.59902,-19.95719 2.9005,-0.0308 16.77842,3.24703 16.77842,3.96294 0,0.63811 -16.42579,12.70759 -22.21482,16.32319 -2.70266,1.68798 -4.47729,1.89842 -8.28518,0.9825 z m -47.80769,-3.97924 c -2.03524,-1.44809 -3.48804,-2.8453 -3.22844,-3.10489 0.85054,-0.85055 6.37823,1.94335 6.98781,3.53189 0.94766,2.46956 0.1908,2.38359 -3.75937,-0.427 z m 29.45317,-1.37752 c -1.29498,-0.51867 -2.14659,-1.50265 -1.89247,-2.18661 0.25413,-0.68396 1.92951,-5.29356 3.72307,-10.24356 1.79355,-4.95 3.62225,-9.39209 4.06377,-9.8713 0.82552,-0.89601 14.96015,2.92776 14.96015,4.04709 0,1.87454 -15.77741,19.35247 -17.38684,19.26082 -0.61224,-0.0349 -2.17269,-0.48776 -3.46768,-1.00644 z m -15.29158,-5.05782 c -1.45536,-0.53336 -2.91286,-1.96034 -3.23889,-3.17105 -1.12993,-4.19599 -3.00601,-23.64363 -2.34466,-24.30499 0.65424,-0.65423 10.64909,2.65035 15.93405,5.26826 l 2.70439,1.33963 -2.47707,6.7479 c -1.36239,3.71134 -3.17909,8.6604 -4.03711,10.9979 -1.62988,4.44031 -2.20081,4.71286 -6.54071,3.12235 z m -19.57178,-8.62429 c -4.15346,-2.09369 -5.55546,-3.45825 -6.87272,-6.68916 -3.02534,-7.42043 -9.39788,-26.90376 -8.94704,-27.35459 0.2442,-0.2442 4.85257,1.82275 10.24082,4.59323 9.76532,5.02104 9.79887,5.05117 10.43497,9.36985 1.31989,8.96105 2.0695,22.8305 1.23077,22.77176 -0.47791,-0.0335 -3.21697,-1.24446 -6.0868,-2.69109 z M 344.75,679.25543 c -4.8125,-0.18331 -8.75,-0.55565 -8.75,-0.82741 0,-0.27176 3.79214,-5.00307 8.42699,-10.51402 4.63484,-5.51096 11.10787,-13.93359 14.3845,-18.71696 l 5.95752,-8.69704 11.86549,-0.22803 c 6.52603,-0.12542 14.09029,-0.51715 16.80948,-0.87052 l 4.94397,-0.64248 -1.82621,2.87051 c -6.7249,10.57052 -18.91175,24.07638 -29.17516,32.33287 -6.03258,4.85296 -8.13129,5.9973 -10.69591,5.83201 -1.75487,-0.11309 -7.12817,-0.35561 -11.94067,-0.53893 z m -34,-3.98453 c -4.2625,-0.81323 -7.75,-1.84599 -7.75,-2.29502 0,-0.44903 2.40982,-4.3398 5.35516,-8.64615 2.94534,-4.30635 7.91203,-12.20099 11.03709,-17.54364 3.12507,-5.34265 6.12771,-9.98941 6.67254,-10.32613 1.11081,-0.68652 27.02105,2.52747 28.172,3.49454 1.01164,0.85002 -13.44898,19.92852 -22.23872,29.34048 -8.11727,8.6919 -7.67073,8.56631 -21.24807,5.97592 z m 72.8252,-4.5209 c 7.65032,-8.25723 16.83335,-19.82158 21.63869,-27.25 3.87652,-5.99259 3.89391,-6.00445 14.08371,-9.60834 5.61132,-1.98459 11.0749,-3.97785 12.14129,-4.42947 1.54653,-0.65497 1.06296,0.78349 -2.38961,7.10834 -13.04431,23.89616 -22.39319,32.76168 -40.40462,38.31559 -11.19282,3.45137 -11.70904,3.03018 -5.06946,-4.13612 z m -174.41972,1.5712 c -6.25547,-5.81394 -25.14311,-38.10671 -24.02756,-41.08063 0.20464,-0.54556 4.53715,1.95109 9.6278,5.54812 8.18362,5.78252 9.37562,7.0133 10.2909,10.62569 0.56935,2.24709 2.56411,9.25079 4.43279,15.56378 1.86869,6.31298 3.24324,11.63252 3.05457,11.8212 -0.18868,0.18867 -1.709,-0.9265 -3.3785,-2.47816 z M 282.75,668.38707 c -4.89518,-1.54577 -7.75,-2.97207 -7.75,-3.872 0,-1.98521 10.99973,-36.83359 11.936,-37.81461 0.99729,-1.04494 29.0415,6.49115 29.05424,7.8075 0.0373,3.85466 -21.35346,36.53312 -23.83285,36.4092 -0.91156,-0.0456 -5.14489,-1.1841 -9.40739,-2.53009 z m -29.61703,-10.64213 -10.36702,-4.16692 0.40497,-21.74363 c 0.22274,-11.95899 0.63505,-21.9737 0.91625,-22.25489 0.2812,-0.2812 8.01725,2.51088 17.19123,6.20461 13.85996,5.58046 16.67283,7.05402 16.63775,8.71589 -0.0899,4.26026 -11.47944,36.98468 -12.94655,37.19809 -0.80828,0.11757 -6.13476,-1.66135 -11.83663,-3.95315 z m -73.29773,-5.96668 c -6.62414,-5.76567 -7.92925,-7.55532 -13.46267,-18.46105 C 160.92301,622.57676 154,604.63073 154,601.24465 c 0,-0.68773 1.66193,0.66338 3.69317,3.00247 2.03124,2.33908 5.85332,6.51408 8.49352,9.27777 3.94964,4.13438 5.58974,7.10553 9.25464,16.76538 2.44986,6.45728 6.2651,15.19625 8.47832,19.41994 2.21322,4.22369 3.85006,7.85341 3.63743,8.06604 -0.21263,0.21263 -3.68746,-2.48646 -7.72184,-5.99799 z m 43.32788,-8.21136 c -5.13528,-2.92165 -9.95901,-5.93422 -10.71939,-6.69459 -1.94027,-1.94027 -3.36588,-12.72816 -4.1128,-31.12231 -0.53466,-13.16713 -0.40925,-15.74525 0.76476,-15.72105 0.77237,0.0159 7.02931,3.2997 13.90431,7.29728 l 12.5,7.26831 -0.13603,5.95273 c -0.37405,16.36874 -1.65088,38.44577 -2.22042,38.39222 -0.35395,-0.0333 -4.84515,-2.45094 -9.98043,-5.37259 z M 351,629.87492 c -17.4153,-2.35299 -20.19772,-3.02204 -19.67234,-4.7303 0.54086,-1.75858 13.87463,-34.40584 14.29319,-34.99637 0.41419,-0.58436 29.81554,3.15551 30.70427,3.9056 1.88964,1.59484 -14.73124,37.02508 -17.27411,36.82272 -0.85306,-0.0679 -4.47601,-0.51862 -8.05101,-1.00165 z m 9,-9.85587 c 0,-1.346 -0.88144,-2.17711 -2.75,-2.59294 -7.24435,-1.61219 -6.8565,-0.76853 -4.78865,-10.41656 0.7651,-3.56974 1.31087,-6.57067 1.21282,-6.66871 -0.0981,-0.098 -1.34696,-0.4716 -2.77536,-0.8301 -2.56368,-0.64344 -2.61908,-0.53834 -4.30565,8.16871 -0.9397,4.8513 -1.91731,9.54314 -2.17246,10.42631 -0.36149,1.25124 0.69994,1.82938 4.80769,2.61863 8.7607,1.68325 10.77161,1.55157 10.77161,-0.70534 z m 13.31102,4.35854 c 3.04937,-6.04869 3.63533,-6.64762 6.76379,-6.91338 3.09409,-0.26285 3.6873,0.13564 6.13671,4.12241 2.82721,4.60167 3.39106,4.95119 5.66438,3.51124 1.10231,-0.69822 0.75433,-1.77495 -1.75,-5.41487 -3.50857,-5.09953 -3.76327,-6.22692 -1.67126,-7.39767 0.95255,-0.53307 1.15415,-1.30028 0.58406,-2.22271 -0.70869,-1.14667 -1.76343,-0.82786 -5.67143,1.71426 -2.64046,1.7176 -4.90584,3.0179 -5.03418,2.88955 -0.12834,-0.12834 1.28379,-3.99604 3.13807,-8.5949 1.85428,-4.59885 3.57096,-9.12459 3.81484,-10.0572 0.38561,-1.47455 2.57572,-1.77495 16.79651,-2.30385 8.9942,-0.33451 16.49376,-0.46754 16.66568,-0.29561 0.51672,0.51672 -5.88429,17.58554 -6.59276,17.58016 -0.36049,-0.003 -2.42449,-2.70273 -4.58667,-6 -4.16935,-6.35813 -4.2932,-6.45548 -6.46401,-5.08092 -0.9843,0.62326 -1.23442,2.08246 -0.84921,4.95439 l 0.54602,4.07092 -3.77183,-1.92424 c -3.1598,-1.61201 -4.05957,-1.71383 -5.5452,-0.62751 -1.65102,1.20725 -1.48484,1.72163 2.4083,7.45453 2.29993,3.3868 4.62905,6.15781 5.17582,6.15781 1.91538,0 2.06694,-2.86344 0.29471,-5.56819 l -1.78861,-2.72976 2.29077,1.22598 c 3.03293,1.62317 5.12308,0.74439 4.44023,-1.86686 -0.74728,-2.85758 1.07456,-2.58759 2.67126,0.39588 1.06011,1.98082 1.67432,2.26474 3.16898,1.46482 2.56431,-1.37238 2.35741,-0.49835 -1.91224,8.07813 l -3.73375,7.5 -9,1.17347 c -4.95,0.64541 -12.71871,1.20791 -17.26379,1.25 l -8.26379,0.0765 3.3386,-6.62241 z M 192,623.574 C 178.85528,613.70341 178.26593,612.88912 175.96759,601.42255 173.89075,591.06109 172.09575,563 173.50979,563 c 0.44851,0 4.00478,2.61864 7.90284,5.8192 3.89805,3.20055 9.59167,7.6918 12.65249,9.98055 l 5.56511,4.16136 0.16137,17.76945 c 0.0888,9.77319 0.54664,20.35694 1.01751,23.51944 0.47087,3.1625 0.59395,5.74028 0.27351,5.72839 C 200.76218,629.96651 196.675,627.08453 192,623.574 Z m 120,-0.66663 c -14.51963,-3.71944 -21.99929,-6.21011 -21.9316,-7.30304 0.18966,-3.0623 11.70446,-37.08116 12.5031,-36.93868 5.48795,0.9791 32.2395,8.84827 33.21984,9.77187 1.04588,0.98533 0.0532,4.18997 -5.22214,16.8585 -7.02581,16.87224 -8.50173,19.75055 -10.05975,19.61829 -0.5552,-0.0471 -4.38445,-0.95025 -8.50945,-2.00694 z m 7,-12.26529 c 0,-1.96672 -0.70511,-2.50666 -4.25,-3.25447 -2.7058,-0.5708 -4.25,-1.43994 -4.25,-2.39208 0,-1.14258 1.00301,-1.4206 4.25,-1.17805 3.70353,0.27666 4.25,0.0575 4.25,-1.70469 0,-1.51931 -0.87035,-2.18544 -3.5,-2.67877 -2.07403,-0.38909 -3.5,-1.24279 -3.5,-2.09539 0,-1.0919 1.14521,-1.36644 4.75,-1.13871 4.22166,0.2667 4.78433,0.0591 5.05866,-1.86684 0.26937,-1.89106 -0.39976,-2.314 -5.25606,-3.32216 -8.7225,-1.81078 -8.7654,-1.7751 -10.75005,8.94229 -0.961,5.18948 -1.50007,9.68547 -1.19794,9.9911 0.71343,0.7217 9.23987,2.78349 12.14539,2.9369 1.73077,0.0914 2.25,-0.42535 2.25,-2.23913 z M 417.61342,621.25 c 0.90214,-2.0625 3.74025,-9.77244 6.30691,-17.13319 l 4.66664,-13.38319 8.45652,-2.76047 c 4.65108,-1.51826 8.63026,-2.59707 8.84263,-2.39736 0.57603,0.54171 -1.74586,11.98983 -3.98011,19.62398 -2.30833,7.88731 -5.43756,10.98711 -16.51094,16.35565 -9.14058,4.43149 -9.84155,4.40398 -7.78165,-0.30542 z M 265.5,607.60969 c -7.15,-2.88488 -14.51963,-6.04334 -16.37695,-7.01879 -3.37565,-1.77288 -3.37669,-1.77572 -2.71813,-7.43223 0.82967,-7.12625 5.24649,-29.11162 6.52296,-32.46898 l 0.95953,-2.52374 12.80629,5.75114 c 7.04347,3.16314 15.8438,7.00143 19.5563,8.52955 3.7125,1.52812 6.74419,3.29026 6.7371,3.91588 -0.007,0.62561 -0.92818,4.06248 -2.04686,7.63748 -1.11868,3.575 -3.61288,11.5625 -5.54267,17.75 -2.6947,8.64003 -3.90181,11.23317 -5.20314,11.17747 -0.93194,-0.0399 -7.54443,-2.4329 -14.69443,-5.31778 z m 13.77217,-17.69134 c 3.17469,-4.97068 5.51063,-9.46077 5.19098,-9.97797 C 284.1435,579.42317 282.84622,579 281.58031,579 c -1.79644,0 -3.04301,1.37188 -5.67908,6.25 -2.85976,5.29205 -3.43155,5.8798 -3.73055,3.83466 -0.19421,-1.32843 0.61566,-4.13904 1.79972,-6.24579 3.30972,-5.88885 0.5556,-8.22157 -3.64687,-3.08887 l -2.2516,2.75 -0.036,-3.25 c -0.0198,-1.7875 -0.44916,-3.25 -0.95417,-3.25 -0.50502,0 -1.68211,-0.29313 -2.61576,-0.65141 -1.51993,-0.58325 -1.63056,-0.0339 -1.05732,5.25 0.37409,3.44816 0.22072,6.52497 -0.36892,7.40141 -0.55504,0.825 -1.06938,1.275 -1.14299,1 -0.0736,-0.275 -0.64299,-3.65 -1.26531,-7.5 -1.07208,-6.63243 -1.28068,-7.01708 -3.97275,-7.32523 -2.35284,-0.26932 -2.74749,-0.0115 -2.29577,1.5 0.30003,1.00388 1.23263,5.84344 2.07245,10.75458 1.90793,11.15733 4.21946,13.32728 8.06458,7.57065 2.49758,-3.73919 3.5,-3.79647 3.5,-0.2 0,3.1164 1.59816,5.2114 3.95,5.17797 0.8525,-0.0121 4.14748,-4.08894 7.32217,-9.05962 z M 160.35868,592.75 c -2.55045,-3.4375 -6.21555,-9.54634 -8.14467,-13.5752 l -3.50748,-7.3252 0.54968,-15.84018 c 0.30233,-8.71209 0.93086,-16.51209 1.39674,-17.33334 0.65328,-1.15158 2.38046,0.41328 7.55008,6.84055 l 6.70304,8.33371 0.0237,14.82483 c 0.013,8.15366 0.39297,18.31233 0.8443,22.57483 0.45133,4.2625 0.46087,7.75 0.0212,7.75 -0.43967,0 -2.88614,-2.8125 -5.43659,-6.25 z m 66.09936,-3.88053 c -13.8055,-7.9068 -17.45823,-10.66205 -17.45667,-13.16751 0.004,-5.93078 6.4507,-36.31324 8.08658,-38.1091 0.47643,-0.52302 4.5495,1.43029 9.61919,4.61305 4.83607,3.03611 10.93016,6.74946 13.5424,8.25189 2.61225,1.50244 4.93576,3.033 5.16335,3.40125 0.22759,0.36825 -0.64356,5.15339 -1.93588,10.63364 -1.29233,5.48026 -3.12208,14.36132 -4.06611,19.73571 -0.99057,5.63925 -2.1982,9.7716 -2.85563,9.7716 -0.62656,0 -5.17031,-2.30874 -10.09723,-5.13053 z m 5.63458,-13.41737 c 5.70207,-2.94865 6.75917,-11.75416 1.9843,-16.52902 -2.34145,-2.34145 -3.78403,-2.91866 -7.25,-2.90084 -8.74094,0.0449 -13.58289,8.5037 -9.15672,15.9966 2.90801,4.92286 8.82023,6.33027 14.42242,3.43326 z M 223.2,570.8 c -0.66,-0.66 -1.2,-2.595 -1.2,-4.3 0,-3.64056 1.54758,-5.5 4.57756,-5.5 2.74336,0 4.67244,2.27074 4.67244,5.5 0,4.70475 -4.98334,7.36666 -8.05,4.3 z m 166.55409,13.59447 c -0.29839,-0.49196 0.51959,-6.29447 1.81774,-12.89447 1.29815,-6.6 2.9049,-17.625 3.57055,-24.5 0.66566,-6.875 1.30775,-12.63931 1.42687,-12.80959 0.40177,-0.57427 25.92357,-2.99652 26.68075,-2.53225 1.16553,0.71466 0.88261,31.67236 -0.37938,41.51283 l -1.12938,8.80645 -3.62062,1.00441 c -5.00525,1.38853 -27.69579,2.51849 -28.36653,1.41262 z M 360,582.36557 c -5.225,-0.81453 -9.81809,-1.79559 -10.20687,-2.18013 -0.38877,-0.38455 0.39576,-4.97108 1.74342,-10.19231 1.34765,-5.22122 3.81778,-15.99517 5.48917,-23.9421 1.67139,-7.94694 3.22393,-14.63401 3.45008,-14.86017 0.90717,-0.90716 25.11558,2.1997 26.41609,3.3902 1.18791,1.08742 1.13588,3.34494 -0.35502,15.40476 -0.9608,7.77184 -2.71215,18.49191 -3.89189,23.8224 L 380.5,583.5 375,583.67326 c -3.025,0.0953 -9.775,-0.49317 -15,-1.30769 z M 431.52545,572.75 c 0.44695,-3.9875 0.89476,-15.47068 0.99512,-25.51819 0.10035,-10.0475 0.36178,-18.40516 0.58095,-18.57257 1.30026,-0.99323 10.11015,-3.7809 10.5521,-3.33895 2.31134,2.31134 5.39522,43.85141 3.51613,47.36252 C 446.17061,574.54973 434.75649,580 431.84588,580 c -0.81464,0 -0.90469,-2.03753 -0.32043,-7.25 z M 324.5,575.01598 c -17.03569,-4.68405 -19.5,-5.60135 -19.5,-7.25856 0,-1.98233 13.74039,-47.82096 14.30557,-47.7241 0.10694,0.0183 7.16943,1.99143 15.69443,4.38469 l 15.5,4.35136 -0.12403,5.36532 c -0.0682,2.95092 -1.80612,12.56531 -3.86202,21.36531 -4.29812,18.39749 -5.61758,22.74421 -7.01395,23.10615 -0.55,0.14256 -7.3,-1.47302 -15,-3.59017 z M 189.43892,563.6255 c -5.46641,-4.60597 -11.19821,-9.71584 -12.73735,-11.35527 l -2.79843,-2.98077 2.06921,-10.1538 c 1.13807,-5.58459 3.48765,-14.64377 5.22129,-20.1315 l 3.15207,-9.9777 3.75169,3.23677 c 2.06343,1.78022 6.83847,5.95569 10.6112,9.27881 3.77273,3.32312 7.84239,6.73048 9.04369,7.5719 l 2.18418,1.52986 -3.35714,13.4281 c -1.84643,7.38546 -3.92921,16.6906 -4.62839,20.6781 -0.69919,3.9875 -1.56416,7.25 -1.92217,7.25 -0.35801,0 -5.12345,-3.76852 -10.58985,-8.3745 z m 0.72775,-12.56186 c 0.18333,-0.51499 3.14583,-3.84329 6.58333,-7.3962 3.4375,-3.55292 6.25,-6.90408 6.25,-7.44702 0,-0.54294 -1.0125,-1.2653 -2.25,-1.60526 -1.82,-0.49998 -3.14713,0.38551 -6.94431,4.63337 l -4.69431,5.25147 0.57105,-7.03174 c 0.55699,-6.85864 0.50639,-7.0612 -2.05569,-8.22856 -2.40687,-1.09664 -2.62788,-1.01028 -2.6404,1.03174 -0.008,1.22571 -0.29213,5.91116 -0.63248,10.41212 -0.34036,4.50096 -0.34833,8.88846 -0.0177,9.75 0.64538,1.68182 5.27791,2.18244 5.83054,0.63008 z M 282,560.59401 c -25.51636,-10.93917 -26.21721,-11.31992 -25.46445,-13.83387 1.74759,-5.83627 11.05936,-30.08224 14.2139,-37.01014 1.95721,-4.29837 4.1527,-7.75 4.92955,-7.75 0.77037,0 3.29525,0.97026 5.61084,2.15614 2.31559,1.18588 9.83516,4.54579 16.71016,7.46647 9.87669,4.19588 12.42833,5.67571 12.15851,7.05136 -1.19485,6.09181 -13.90762,46.73806 -14.69407,46.981 C 294.934,565.81884 288.875,563.5414 282,560.59401 Z m -39,-18.86892 c -16.1148,-9.71134 -22.93828,-14.73023 -22.34449,-16.43509 3.41241,-9.79756 20.52109,-42.0368 22.76498,-42.89786 0.62027,-0.23802 5.46829,2.38887 10.77338,5.83755 5.30508,3.44867 10.42672,6.74254 11.38141,7.31972 1.58553,0.95855 1.21614,2.30048 -4.26666,15.5 -3.30135,7.94782 -7.48293,18.61309 -9.29238,23.70059 -1.80946,5.0875 -3.79085,9.21272 -4.40309,9.16715 -0.61223,-0.0456 -2.68815,-1.03199 -4.61315,-2.19206 z m -83.33539,-8.98243 c -5.37283,-7.58926 -5.78579,-8.55409 -5.20962,-12.17132 0.68932,-4.32753 7.30508,-21.56716 10.91618,-28.4458 l 2.29647,-4.37446 4.45961,5.87446 c 2.45279,3.23095 4.80083,6.43163 5.21788,7.11261 0.41829,0.68303 -1.01289,6.51151 -3.19216,13 -2.17273,6.46902 -4.71616,15.24935 -5.65208,19.51185 -0.93591,4.2625 -1.99398,7.7467 -2.35127,7.74266 -0.35729,-0.004 -3.27555,-3.71654 -6.48501,-8.25 z m 211.6333,-10.12085 c -4.51115,-0.65596 -8.50067,-1.49123 -8.8656,-1.85616 -0.36492,-0.36493 -0.0783,-9.91149 0.63695,-21.21458 1.48208,-23.42116 0.28239,-21.41909 11.64873,-19.43972 4.64829,0.80946 6.75422,1.69228 7.75278,3.25 1.78679,2.78733 4.5277,20.82164 4.80854,31.63865 l 0.22069,8.5 -4,0.15723 c -2.2,0.0865 -7.69094,-0.37946 -12.20209,-1.03542 z m 23.34367,-15.73425 c -1.00264,-9.56316 -2.0564,-19.07506 -2.34169,-21.13756 l -0.5187,-3.75 7.3594,0.0136 c 10.76912,0.02 11.48253,0.36311 13.83657,6.65486 2.83981,7.59008 7.64224,24.01026 8.46639,28.94778 0.84269,5.04865 0.52067,5.18338 -14.46127,6.05025 l -10.51773,0.60858 -1.82297,-17.38756 z M 200.25,510.90772 C 194.0625,505.37957 189,500.42385 189,499.89502 189,496.64757 202.22741,475.66343 210.99617,465 c 2.9398,-3.575 5.46641,-6.6606 5.61468,-6.85689 0.14827,-0.19628 4.68399,3.59373 10.07937,8.42225 5.39538,4.82852 9.97604,8.90538 10.17924,9.05968 0.2032,0.1543 -1.43785,3.14221 -3.64678,6.6398 -5.2981,8.38894 -15.54017,28.00583 -17.74381,33.98516 -0.96282,2.6125 -2.25195,4.74075 -2.86473,4.72945 -0.61278,-0.0113 -6.17664,-4.54358 -12.36414,-10.07173 z m 143.75,6.4526 c -14.04807,-3.72388 -22,-6.51401 -22,-7.71923 0,-1.59168 10.70165,-38.67607 11.34729,-39.32171 0.59205,-0.59205 20.79995,5.42786 21.89442,6.52233 0.79316,0.79316 -0.74038,35.35168 -1.77094,39.90829 -0.58513,2.58718 -1.73394,2.66121 -9.47077,0.61032 z M 428.61607,511.25 c -0.98505,-4.2625 -3.32664,-12.51778 -5.20353,-18.34507 C 421.53564,487.07764 420,482.01514 420,481.65493 420,481.29472 421.34548,481 422.98996,481 c 2.76373,0 3.3321,0.68122 7.5115,9.00291 5.98114,11.90916 10.68766,23.88207 9.89326,25.16744 -0.73804,1.19417 -6.69701,3.82965 -8.65907,3.82965 -0.83643,0 -1.99203,-2.87088 -3.11958,-7.75 z M 300.5,502.63348 c -14.47406,-6.27283 -20.5,-9.49199 -20.5,-10.95147 0,-1.59989 11.10072,-21.00747 16.87653,-29.50554 2.36382,-3.47794 4.82112,-6.09792 5.46066,-5.82217 0.63955,0.27575 5.66281,2.55654 11.16281,5.06841 5.5,2.51188 10.39915,4.7024 10.88699,4.86783 0.48785,0.16543 -1.72941,9.39274 -4.92725,20.50512 -4.39868,15.28532 -6.19715,20.20036 -7.38699,20.188 C 311.20774,506.97467 306,505.01709 300.5,502.63348 Z M 178.72199,487.25 c -6.45752,-8.89504 -6.43164,-8.50104 -1.05362,-16.04212 2.63109,-3.68933 9.80305,-11.87031 15.93767,-18.17996 12.18772,-12.53543 12.18973,-12.53613 15.94239,-5.56785 1.84715,3.42995 1.8457,3.5321 -0.0845,5.94728 -8.49778,10.63292 -16.99023,22.47604 -21.39952,29.84265 -2.88053,4.8125 -5.3851,8.75 -5.5657,8.75 -0.18061,0 -1.88013,-2.1375 -3.77672,-4.75 z m 81.65789,-5.84625 c -5.43393,-3.62793 -10.06806,-6.77861 -10.29805,-7.0015 -0.23,-0.2229 0.22,-1.6047 1,-3.07068 C 252.79766,468.10672 276.81287,443 278.18169,443 279.80673,443 293,451.16334 293,452.16884 c 0,0.51749 -1.73314,3.50371 -3.85142,6.63603 -2.11827,3.13232 -6.88084,10.98263 -10.58348,17.44513 -3.70264,6.4625 -7.08605,11.75 -7.5187,11.75 -0.43265,0 -5.23258,-2.96831 -10.66652,-6.59625 z M 389.65891,472.25 C 389.06021,471.27198 380,444.40728 380,443.61006 c 0,-0.78234 3.36909,-0.78939 5.39677,-0.0113 2.72967,1.04747 19.60323,25.50912 19.60323,28.41885 0,1.14141 -14.64878,1.36331 -15.34109,0.23239 z m 22.7351,-5 c -1.47967,-2.6125 -3.3346,-5.80154 -4.12206,-7.08676 -0.78747,-1.28522 -1.21504,-2.55348 -0.95017,-2.81835 C 407.82645,456.84022 419,470.25023 419,471.36059 419,471.71227 418.11897,472 417.04215,472 c -1.29142,0 -2.87358,-1.61683 -4.64814,-4.75 z m -43.03805,2.49563 -5.14404,-0.99163 -0.60596,-7.377 c -0.33328,-4.05735 -0.88383,-10.752 -1.22345,-14.877 -0.544,-6.60742 -0.41716,-7.5 1.06574,-7.5 3.242,0 5.70009,2.18024 7.68954,6.82034 1.88795,4.40335 8.86221,23.90157 8.86221,24.77644 0,0.63443 -5.01998,0.23301 -10.64404,-0.85115 z M 233.06675,460.1915 c -5.76816,-5.33094 -8.24604,-8.2819 -7.84084,-9.33784 C 226.52071,447.47947 254.13,427 257.3841,427 c 0.61838,0 3.95461,2.31789 7.41384,5.15086 l 6.28951,5.15086 -10.35117,10.59914 c -5.69315,5.82953 -12.06703,12.73664 -14.16419,15.34914 -2.09716,2.6125 -4.09631,4.74674 -4.44255,4.74276 -0.34625,-0.004 -4.4245,-3.51454 -9.06279,-7.80126 z m 112.04765,3.32815 c -4.06209,-1.31497 -7.73126,-2.75734 -8.15373,-3.20525 -0.78434,-0.8316 5.50141,-25.17648 6.8482,-26.52327 1.13847,-1.13847 8.20605,1.36824 9.22483,3.27183 0.49665,0.92801 1.2107,7.81848 1.58678,15.31216 0.56997,11.35713 0.4504,13.61743 -0.71835,13.58014 -0.77117,-0.0246 -4.72565,-1.12063 -8.78773,-2.43561 z M 316.25,452.70206 c -5.0875,-2.29736 -9.25,-4.42812 -9.25,-4.73503 0,-0.30691 3.89071,-5.48754 8.64601,-11.51252 4.75531,-6.02498 8.73471,-11.07141 8.84312,-11.21429 0.1084,-0.14288 2.55855,0.7216 5.44477,1.92106 5.01138,2.08263 5.22076,2.31947 4.64998,5.25978 -1.51828,7.82114 -6.95909,24.57268 -7.96347,24.51848 -0.61622,-0.0333 -5.28291,-1.94012 -10.37041,-4.23748 z M 216.08156,440.63197 C 214.9367,438.77955 214,436.78652 214,436.20301 c 0,-1.52401 12.85743,-9.31764 24.35224,-14.76132 9.00082,-4.26257 9.98949,-4.52853 11.44047,-3.07755 0.87353,0.87353 1.39003,1.74018 1.14777,1.92589 -0.24227,0.18571 -4.35691,2.93697 -9.14367,6.11391 -4.78675,3.17695 -11.87057,8.43572 -15.74183,11.68616 -3.87125,3.25045 -7.23061,5.9099 -7.46525,5.9099 -0.23464,0 -1.36331,-1.51562 -2.50817,-3.36803 z m 76.63715,-0.20905 C 289.57342,438.45553 287,436.50682 287,436.09244 c 0,-0.92986 7.02921,-6.05231 16.93768,-12.34312 7.25844,-4.60833 9.80511,-5.15903 12.4558,-2.69344 0.50626,0.4709 -1.10729,3.05643 -3.72313,5.96588 -2.53914,2.82413 -6.54121,7.78645 -8.89348,11.02736 -2.35228,3.24092 -4.51595,5.9057 -4.80816,5.92173 -0.29221,0.016 -3.10471,-1.58053 -6.25,-3.54793 z m -19.62933,-13.4465 C 270.29022,424.76381 268,422.57403 268,422.11024 c 0,-1.05162 14.10449,-6.22125 23.65243,-8.66918 5.25842,-1.34818 7.7541,-1.56529 9.42458,-0.8199 2.10479,0.93918 1.43526,1.59818 -9.08929,8.94635 -6.24879,4.36287 -11.91213,8.26984 -12.5852,8.68216 -0.73667,0.45128 -3.24945,-0.85155 -6.31314,-3.27325 z m 87.98957,0.44025 c 0.048,-1.16495 0.28494,-1.4019 0.60416,-0.60417 0.28887,0.72187 0.25335,1.58438 -0.0789,1.91667 -0.33229,0.33229 -0.56864,-0.25834 -0.52522,-1.3125 z m -13.84093,-3.2484 c -0.98265,-0.62379 -1.00967,-1.52487 -0.12207,-4.07105 0.93386,-2.67887 1.36548,-3.02838 2.38783,-1.93358 0.68635,0.735 1.53736,2.57386 1.89112,4.08636 0.51664,2.20887 0.2951,2.74699 -1.12585,2.73469 -0.97298,-0.008 -2.33694,-0.37581 -3.03103,-0.81642 z m -13.56105,-5.2758 c -1.72966,-1.0186 -1.73453,-1.17139 -0.095,-2.98303 0.95041,-1.05019 2.58816,-1.90944 3.63945,-1.90944 1.49404,0 1.84234,0.59865 1.59501,2.74145 -0.34639,3.0011 -2.3044,3.82059 -5.13945,2.15102 z M 259.55,414.10535 c 0.5225,-0.49205 2.525,-1.184 4.45,-1.53766 3.47821,-0.639 3.48444,-0.63366 1,0.85922 -2.72157,1.63536 -7.0365,2.1725 -5.45,0.67844 z m 201.00231,47.05947 c -0.73904,-2.32852 -5.14799,-5.4689 -6.86329,-4.88854 -0.69316,0.23452 0.38874,1.98452 2.59431,4.19634 3.90294,3.91399 5.36688,4.15136 4.26898,0.6922 z M 430.07142,430.7821 c -3.15054,-10.66992 -14.33357,-23.76549 -20.30564,-23.77836 -0.95383,-0.002 -3.20383,1.36183 -5,3.03085 l -3.26578,3.03459 2.48371,1.71541 c 4.04818,2.79594 19.27891,15.76248 22.4597,19.12085 3.83348,4.04752 5.35787,2.73517 3.62801,-3.12334 z M 453,417.58179 C 453,415.98497 451.55525,414 450.39301,414 c -1.43665,0 -1.90596,2.15372 -0.72634,3.33333 0.72828,0.72829 3.33333,0.92246 3.33333,0.24846 z m -7,-7.45736 c 0,-0.48156 -1.125,-3.41939 -2.5,-6.52851 -1.375,-3.10912 -2.5,-7.16263 -2.5,-9.0078 0,-5.47329 -3.19471,-5.49027 -13.25,-0.0704 -1.5125,0.81525 -3.94305,2.04477 -5.40122,2.73227 -1.45817,0.6875 -3.14567,2.06477 -3.75,3.06059 -0.90275,1.48758 -0.59822,2.24579 1.70698,4.25 3.40758,2.96264 4.71681,3.06909 5.40449,0.43941 0.95909,-3.66755 7.78544,-2.20987 14.1258,3.01639 3.56289,2.93683 6.16395,3.82638 6.16395,2.10804 z m 13.18016,-6.28172 c 0.18691,-1.26326 1.15106,-2.27645 2.31984,-2.43785 2.91754,-0.40286 8.35594,-7.12363 9.14446,-11.3007 1.49705,-7.93037 -5.29948,-24.95194 -13.74783,-34.43078 C 449.06555,346.8871 443,343.9849 443,349.02422 443,351.05885 437.44717,358 435.81948,358 c -0.53533,0 -2.31765,-1.34432 -3.9607,-2.98738 -4.36236,-4.36236 -3.75883,-8.67277 1.64122,-11.72145 l 4,-2.25827 -3.79775,-0.0164 c -4.66905,-0.0202 -6.77435,-2.10334 -12.23557,-12.10667 -10.13991,-18.57332 -22.17277,-24.93481 -41.58028,-21.98252 -8.08123,1.22933 -22.8864,5.77112 -22.8864,7.02087 0,0.43114 2.8125,1.79885 6.25,3.03936 5.60179,2.02155 30.75276,14.47902 36.52292,18.09008 2.43406,1.52328 2.5635,4.66017 0.16769,4.06388 -1.55766,-0.38768 -14.17503,-3.86234 -17.44061,-4.80292 -1.69785,-0.48902 -1.58454,-0.13438 0.75,2.34743 3.85278,4.09582 3.61679,5.71639 -0.7297,5.01105 -3.4624,-0.56187 -3.472,-0.55293 -1.93097,1.79898 1.39882,2.13487 1.39815,2.59348 -0.007,4.73781 -1.50696,2.29991 -1.4509,2.412 1.79284,3.58495 1.84165,0.66595 5.88845,3.87374 8.9929,7.12843 C 398.79199,366.73024 401.77858,369 404.5959,369 c 1.27941,0 3.26144,1.00387 4.40452,2.23082 l 2.07832,2.23082 4.85801,-2.73082 C 418.60866,369.22887 421.51464,368 422.3945,368 c 0.87986,0 3.34308,-1.575 5.47382,-3.5 2.84053,-2.56625 4.78884,-3.5 7.30288,-3.5 6.0657,0 6.49708,2.44634 2.34742,13.31208 -2.29066,5.99801 -1.48002,9.15745 2.72535,10.622 1.79082,0.62366 4.93388,2.24362 6.98459,3.59992 4.81179,3.18243 7.5526,3.1718 8.77144,-0.034 1.82674,-4.80468 5,-2.55621 5,3.54283 0,3.23013 -3.646,7.30699 -5.79668,6.4817 C 454.45153,398.23604 453.23276,398 452.49494,398 c -0.73782,0 -2.74502,-1.18099 -4.46045,-2.62443 -1.71543,-1.44344 -3.39506,-2.34833 -3.73252,-2.01087 -0.99266,0.99266 6.2812,12.02686 8.78106,13.32058 2.84937,1.4746 5.65167,0.16812 6.09713,-2.84257 z M 447.4309,381.8882 c -0.75384,-1.21975 1.49206,-3.05385 2.77135,-2.2632 0.43876,0.27117 0.79775,1.14148 0.79775,1.93402 0,1.69692 -2.5769,1.93459 -3.5691,0.32918 z m 27.25538,23.1107 c 6.84112,-3.41854 9.82209,-6.23172 8.96639,-8.46165 -0.79924,-2.08278 -2.95699,-1.93281 -7.80959,0.5428 -2.51781,1.28449 -4.48929,3.17169 -5.15456,4.93421 -0.59253,1.56978 -1.88985,3.06663 -2.88292,3.32633 -2.08783,0.54598 -2.45762,2.65941 -0.46532,2.65941 0.73715,0 4.04285,-1.35049 7.346,-3.0011 z M 340,383.12244 c 0,-0.48265 -0.71298,-1.46927 -1.58439,-2.19248 C 334.5801,377.74677 331,371.08388 331,367.12884 c 0,-2.20594 -0.45,-4.28892 -1,-4.62884 -0.55,-0.33992 -1,-3.68638 -1,-7.43657 0,-4.24925 -0.47101,-7.1993 -1.25,-7.82901 -0.6875,-0.55576 -3.58634,-1.32449 -6.44186,-1.70829 -4.60646,-0.61913 -5.22661,-0.98684 -5.5,-3.26111 -0.44057,-3.66495 -3.27931,-5.22242 -5.48977,-3.01196 -1.62555,1.62555 -1.57602,1.86966 0.90967,4.48305 1.44586,1.52014 5.62151,8.38889 9.27923,15.26389 7.38201,13.87514 10.27754,18.20001 14.87849,22.2231 3.2366,2.83009 4.61424,3.39716 4.61424,1.89934 z m -13,-0.5514 C 327,381.65924 312.24376,373 310.68996,373 c -0.9032,0 -2.51245,1.6875 -3.57611,3.75 l -1.93392,3.75 8.66003,1.11833 C 324.07583,382.94015 327,383.15185 327,382.57104 Z m 31.39263,-5.99025 c -0.29953,-0.78057 0.20838,-2.56842 1.1287,-3.97301 1.08529,-1.65635 1.90267,-5.77694 2.32599,-11.72574 0.52163,-7.33031 1.01664,-9.39384 2.46533,-10.277 2.64847,-1.61458 5.24798,2.02515 6.11514,8.56218 0.80313,6.05425 1.92993,7.83278 4.96252,7.83278 1.17998,0 3.85988,1.165 5.95533,2.5889 7.85868,5.34011 5.4999,-0.57063 -5.89686,-14.77661 l -7.77197,-9.68771 -6.58841,-0.79294 c -3.62362,-0.43612 -10.8634,-0.80165 -16.0884,-0.81229 -9.09727,-0.0185 -9.51355,0.076 -9.81955,2.23065 -0.18797,1.3235 0.22381,2.29377 1,2.3563 0.72575,0.0585 2.19901,0.17096 3.2739,0.25 3.26028,0.23972 6.54565,6.23723 6.54565,11.94921 0,4.34342 0.55151,5.72461 4.14654,10.38444 3.84732,4.98683 6.30689,7.20495 8.07208,7.27964 0.39523,0.0167 0.47354,-0.60824 0.17401,-1.3888 z M 349,362.5 c 0,-0.83333 0.88889,-1.5 2,-1.5 1.11111,0 2,0.66667 2,1.5 0,0.83333 -0.88889,1.5 -2,1.5 -1.11111,0 -2,-0.66667 -2,-1.5 z m -104.08327,6.52388 C 248.27135,368.06179 253,364.43589 253,362.82569 c 0,-1.68806 -3.71015,-0.6174 -11,3.17431 -7.17309,3.73098 -7.34715,3.90318 -3.9934,3.95051 1.92863,0.0272 5.03819,-0.38976 6.91013,-0.92663 z m -8.42198,-5.02134 c 2.26941,-1.0986 5.38127,-3.30747 6.91525,-4.9086 2.31691,-2.41833 2.6716,-3.44592 2.09523,-6.07011 -0.3816,-1.73743 -1.24489,-3.37043 -1.91842,-3.62889 -1.28758,-0.49409 -24.14826,8.06515 -26.387,9.87952 -1.95853,1.58729 0.66274,3.73137 6.47018,5.29232 6.65816,1.78961 8.09273,1.7265 12.82476,-0.56424 z m -33.37468,-12.67238 c 2.89735,-0.35097 4.87696,-0.14399 5.30901,0.5551 1.41693,2.29264 7.65422,1.108 15.19123,-2.88526 4.15236,-2.2 8.43382,-4 9.51437,-4 5.14109,0 10.44069,-5.64198 8.40045,-8.94316 -0.97391,-1.57582 -12.43323,-1.27627 -18.34573,0.47955 -2.84548,0.84502 -7.31466,2.84543 -9.9315,4.44535 -2.61685,1.59992 -7.66295,3.64484 -11.21356,4.54427 C 193.95611,347.5749 190,349.58881 190,351.65735 c 0,1.33046 0.72914,1.48816 4.25,0.91922 2.3375,-0.37772 6.32903,-0.93861 8.87007,-1.24641 z m 101.77565,-1.24455 C 307.16081,348.65137 305.38145,346 302.15383,346 c -4.60617,0 -5.76962,-2.26756 -3.25284,-6.3398 1.99864,-3.23386 2.7751,-6.6602 1.5093,-6.6602 -0.32434,0 -1.37925,0.97504 -2.34424,2.16676 -1.11017,1.37101 -2.36262,1.93341 -3.41029,1.53138 -1.87578,-0.7198 -2.07376,-2.75388 -0.72557,-7.45474 1.17101,-4.08305 0.22187,-4.13212 -5.37969,-0.27814 -4.81544,3.3131 -5.5505,4.60932 -5.5505,9.78779 0,4.10145 2.33989,7.24272 5.40499,7.25609 1.15225,0.005 4.34501,1.11596 7.09501,2.46873 5.41163,2.66207 7.23726,2.97447 9.39572,1.60774 z M 255,344.46016 c 0,-2.6437 2.86252,-8.97499 6.19868,-13.71016 2.37902,-3.37666 2.01345,-3.39792 -4.20893,-0.24481 C 251.69234,333.1896 249,336.97892 249,341.75034 c 0,3.2616 1.59055,5.24966 4.2,5.24966 1.26086,0 1.8,-0.76073 1.8,-2.53984 z M 198.75632,338.25 c 0.22569,-0.6875 -0.30215,-1.25 -1.17299,-1.25 -2.83693,0 -1.68947,-2.47669 4.56395,-9.85082 l 6.14727,-7.24898 1.84853,2.7999 c 1.01668,1.53994 2.3509,4.30966 2.96493,6.15492 l 1.11641,3.35502 5.23632,-5.17127 c 2.87998,-2.8442 6.09198,-5.29421 7.13779,-5.44447 1.31204,-0.18851 1.99648,-1.22444 2.20798,-3.34188 0.26523,-2.65551 -0.0714,-3.15049 -2.5,-3.67627 -5.33826,-1.15567 -18.14151,1.23725 -26.27939,4.9116 -8.31242,3.75317 -10.48857,4.19266 -11.62835,2.34846 -1.09501,-1.77177 3.83372,-5.44892 10.62034,-7.92345 11.98295,-4.3692 7.26254,-5.37849 -6.50094,-1.38999 C 181.54821,315.70174 178,317.52101 178,319.96666 c 0,1.05342 0.41456,2.17152 0.92124,2.48466 0.50668,0.31315 1.70795,2.70221 2.66947,5.30902 2.0397,5.52988 3.77923,7.81828 7.90929,10.40487 3.25938,2.0413 8.59799,2.09021 9.25632,0.0848 z M 377.242,332.45695 c -1.04769,-0.73383 -3.17286,-1.65248 -4.7226,-2.04144 -3.78701,-0.95048 -2.45554,1.28742 1.84074,3.09387 3.69134,1.55209 5.60341,0.85382 2.88186,-1.05243 z m 66.81744,1.01231 c 2.83479,-1.46592 2.89934,-1.64588 1.52438,-4.25 -1.53942,-2.91562 -13.47294,-14.86264 -17.55633,-17.57619 C 426.66762,310.73938 424.51428,310 423.24231,310 c -3.04772,0 -2.28725,1.3606 6.14818,11 3.60978,4.125 6.57365,8.25536 6.58637,9.17857 0.0253,1.83795 2.58977,4.82143 4.14423,4.82143 0.53803,0 2.31029,-0.68883 3.93835,-1.53074 z m -86.56531,-6.49599 c -0.7683,-3.49805 -2.37359,-4.77284 -3.59062,-2.85139 -1.39134,2.19666 -1.0435,5.59528 0.75693,7.3957 1.52979,1.52979 1.73208,1.5324 2.57106,0.0332 0.50085,-0.89496 0.61903,-2.95485 0.26263,-4.57754 z m -127.62879,-1.5243 c 0.31608,-1.6311 0.14754,-1.70455 -1.25,-0.54469 -1.91126,1.5862 -2.14923,3.44015 -0.36534,2.84619 0.6875,-0.22891 1.4144,-1.26459 1.61534,-2.3015 z M 290.45936,320.75 C 292.05272,316.93481 293.47128,310 292.65834,310 288.92232,310 284,315.82015 284,320.23763 c 0,4.98518 4.44414,5.3377 6.45936,0.51237 z m -31.5207,0.8239 c 0.65096,-0.78435 1.04356,-3.35741 0.87245,-5.71792 -0.28151,-3.88346 -0.62034,-4.38 -3.56111,-5.21856 -3.69234,-1.05287 -3.90126,-1.71384 -1.63499,-5.1726 0.88826,-1.35565 1.30697,-2.46482 0.93048,-2.46482 -2.36337,0 -15.83111,6.56969 -17.05771,8.32091 -2.91991,4.16875 -1.31014,9.1965 3.51222,10.96965 3.36879,1.23869 15.75064,0.71482 16.93866,-0.71666 z m 18.47245,-2.65063 c 2.48163,-2.94925 3.49373,-6.92327 1.7632,-6.92327 -2.04884,0 -7.68417,8.15681 -6.47246,9.36852 1.15149,1.15149 2.09506,0.66155 4.70926,-2.44525 z m 24.41822,-4.27557 c 0.25442,-1.32108 -0.15595,-1.73145 -1.47703,-1.47703 -1.00613,0.19376 -1.98787,1.1755 -2.18163,2.18163 -0.25442,1.32108 0.15595,1.73145 1.47703,1.47703 1.00613,-0.19376 1.98787,-1.1755 2.18163,-2.18163 z M 417.5,308 c 0.33992,-0.55 1.99773,-1 3.68402,-1 2.92505,0 3.03613,-0.14923 2.41667,-3.24653 -0.35711,-1.78559 -1.53836,-4.13559 -2.625,-5.22222 C 419.0081,296.56366 419,296.56853 419,299.71876 c 0,1.73976 -0.46971,3.4535 -1.0438,3.80831 -1.70107,1.05132 -3.9562,-1.55831 -3.9562,-4.57809 0,-3.86908 -2.07091,-5.58839 -7.70046,-6.39307 -2.63974,-0.37733 -10.5885,-2.03169 -17.6639,-3.67637 -13.05181,-3.03389 -17.66833,-3.33376 -18.37061,-1.19327 -0.63013,1.92057 3.63869,4.05878 13.23808,6.63081 11.61731,3.11271 23.43952,8.06118 28.09222,11.75868 3.9692,3.15432 4.94742,3.47311 5.90467,1.92424 z m -221.98884,-3.00424 c 1.36886,-0.52044 2.48884,-1.4074 2.48884,-1.97101 0,-1.63241 -3.95771,-1.11256 -11.5,1.51055 l -7,2.4345 6.76116,-0.51389 c 3.71863,-0.28264 7.88113,-0.93971 9.25,-1.46015 z M 363,304 c 0,-0.55 -1.09844,-1 -2.44098,-1 -1.34254,0 -2.7191,0.45 -3.05902,1 -0.36058,0.58342 0.65628,1 2.44098,1 1.68246,0 3.05902,-0.45 3.05902,-1 z m -155,-2 c 0,-0.55 -0.87344,-1 -1.94098,-1 -1.06754,0 -2.2191,0.45 -2.55902,1 -0.35052,0.56716 0.48962,1 1.94098,1 1.40746,0 2.55902,-0.45 2.55902,-1 z m 24.36008,-2.69341 c 0.38138,-0.38138 4.16888,-0.71888 8.41667,-0.75 5.63608,-0.0413 8.80423,-0.59708 11.72325,-2.05659 3.52381,-1.7619 4,-2.41667 4,-5.5 0,-3.3226 -0.19007,-3.51573 -3.75,-3.81037 -3.19336,-0.26429 -3.75,-0.66283 -3.75,-2.6849 0,-1.30599 0.46858,-3.607 1.0413,-5.11335 1.58687,-4.17378 0.26626,-8.18098 -3.30469,-10.02758 -2.5998,-1.34441 -3.91345,-1.4187 -8.1847,-0.46283 C 233.27239,270.08247 227,273.3155 227,274.85525 c 0,0.48655 2.01851,1.11216 4.48557,1.39023 4.93461,0.55621 9.51443,3.04045 9.51443,5.16094 0,1.58558 -3.0379,2.56063 -8.03811,2.57993 -4.5797,0.0177 -12.12923,3.84541 -13.62194,6.90654 -1.61011,3.30188 0.0148,6.47386 3.98609,7.7811 3.86924,1.27365 8.09694,1.56969 9.03404,0.6326 z M 117.55887,293.519 c 1.68283,-1.28393 1.74153,-1.61776 0.44113,-2.50884 -0.825,-0.56531 -2.4,-1.20185 -3.5,-1.41454 -12.81148,-2.4771 -14.48616,-2.62121 -16.42067,-1.41309 -1.69732,1.05999 -2.34593,0.91564 -4.35143,-0.96843 C 90.61761,284.29213 90,284.4177 90,287.97207 c 0,2.73071 0.42633,3.09226 5.25,4.45227 9.89097,2.7887 19.4723,3.25884 22.30887,1.09466 z M 136.5,294 c 0.36852,-0.59628 -0.84262,-1 -3,-1 -2.15738,0 -3.36852,0.40372 -3,1 0.33992,0.55 1.68992,1 3,1 1.31008,0 2.66008,-0.45 3,-1 z m 37.25125,-12.32267 C 175.32101,280.10756 175.26808,280 172.92573,280 c -1.37657,0 -4.26814,-0.9 -6.42573,-2 -4.69227,-2.39225 -4.5,-2.37089 -4.5,-0.5 0,1.98104 -0.60779,1.89221 -2.92792,-0.42792 -1.06035,-1.06035 -3.95961,-2.23259 -6.44279,-2.60496 -6.82155,-1.02296 -21.31566,-0.18174 -22.82139,1.32452 -1.9976,1.99831 0.36629,2.9271 9.50986,3.73649 4.39425,0.38898 9.83289,1.57191 12.08589,2.62873 5.31575,2.4935 19.68286,2.18521 22.3476,-0.47953 z m 126.38797,-1.70008 2.36078,-2.02275 -3.68511,0.62187 c -7.79216,1.31493 -6.91017,-2.25145 1.46933,-5.94135 l 4.84848,-2.13502 -3.75677,-4.38143 -3.75677,-4.38143 -1.20889,3.4918 c -0.66489,1.92049 -2.29958,5.24213 -3.63264,7.38143 -3.00914,4.82908 -3.94913,7.30311 -3.22186,8.47987 1.06701,1.72645 8.13728,0.98292 10.58345,-1.11299 z m 119.03204,0.36776 C 421.41148,278.31764 421.7119,272 419.56809,272 c -1.59992,0 -4.93432,4.30386 -6.00428,7.75 -0.58101,1.87132 -0.32182,2.25 1.54006,2.25 1.23126,0 3.06158,-0.74474 4.06739,-1.65499 z m -12.99183,-4.12529 c 1.47369,-0.97191 4.10094,-3.55585 5.83834,-5.74208 l 3.15891,-3.97497 -4.72108,-2.16901 c -2.5966,-1.19296 -5.29843,-1.94747 -6.00407,-1.67669 -0.70565,0.27079 -2.52932,2.29078 -4.0526,4.48888 -1.52329,2.1981 -4.37371,4.82955 -6.33427,5.84768 l -3.56466,1.85113 3.5,1.53853 c 4.65889,2.04795 8.91286,1.99085 12.17943,-0.16347 z M 207,271.5 c 1.29175,-1.375 2.94519,-2.5 3.67431,-2.5 0.7474,0 1.32569,1.09054 1.32569,2.5 0,1.59116 0.56336,2.5 1.54966,2.5 1.56711,0 7.45034,-2.7195 7.45034,-3.44389 0,-0.2159 0.25395,-1.05431 0.56433,-1.86315 0.41733,-1.08755 -0.42922,-1.61506 -3.25,-2.02516 -2.09788,-0.30499 -5.19581,-0.8442 -6.88429,-1.19824 -2.65876,-0.55749 -3.49588,-0.1586 -6.25,2.97816 -1.74902,1.99203 -3.18004,4.05621 -3.18004,4.58708 0,1.79101 2.6356,0.98199 5,-1.5348 z m 184.07194,-8.58646 C 400.26502,256.61846 405,252.16169 405,249.80383 c 0,-2.48108 -2.29919,-2.25916 -5.67327,0.5476 -4.21262,3.5043 -6.82048,4.64857 -10.59432,4.64857 -4.36975,0 -4.97814,0.69533 -3.10703,3.55102 1.44842,2.21056 1.37407,2.3979 -1.55204,3.91106 -2.92291,1.51149 -3.86321,3.41472 -2.40667,4.87125 1.1218,1.12181 1.72976,0.83611 9.40527,-4.41979 z M 178.57473,261.54663 C 178.14967,259.28088 177.34485,258 176.34628,258 c -1.20508,0 -1.40533,0.62859 -0.87429,2.74441 0.74842,2.98194 2.52671,5.59023 3.29055,4.82638 0.26264,-0.26264 0.17813,-2.07352 -0.18781,-4.02416 z m 22.50372,3.41138 c 1.55462,-0.832 1.73827,-1.43195 0.91134,-2.97708 -1.69356,-3.16445 -4.86154,-4.40132 -6.82298,-2.66387 -0.91674,0.81205 -2.47808,1.63542 -3.46963,1.8297 -2.56494,0.50257 -2.37497,2.14518 0.41502,3.5885 2.93451,1.51808 6.3857,1.60382 8.96625,0.22275 z M 131,261.44007 c 0,-1.82284 -4.46388,-3.64298 -7.94126,-3.23804 -3.63106,0.42284 -3.19705,2.97933 0.84864,4.99892 3.70307,1.84856 7.09262,1.00704 7.09262,-1.76088 z m 18.81955,-3.2684 C 150.02724,256.7602 149.61033,256 148.62857,256 c -1.9446,0 -2.96722,1.67512 -2.21666,3.63105 0.81433,2.12209 3.01962,1.17764 3.40764,-1.45938 z m 12.31967,0.8616 c 1.35026,-1.12488 1.79758,-1.98097 1.04504,-2 -1.88295,-0.0476 -5.18426,1.86399 -5.18426,3.00191 0,1.51744 1.57177,1.13698 4.13922,-1.00191 z M 170.75501,257.75 C 170.27832,256.30257 166,255.41522 166,256.76378 c 0,1.42806 1.17454,2.23622 3.25,2.23622 1.08622,0 1.7383,-0.5416 1.50501,-1.25 z m 250.33477,-1.58224 c -1.46196,-2.7317 -3.42123,-4.08405 -6.93509,-4.78682 -4.25678,-0.85136 -4.01238,0.75947 0.59531,3.92365 4.59945,3.15852 7.80154,3.59448 6.33978,0.86317 z M 83.41821,252.39301 c 1.72857,-0.66331 2.1232,-2.94036 0.66571,-3.84115 C 82.58411,247.62493 78,249.82764 78,251.47525 c 0,1.56119 2.5957,2.00086 5.41821,0.91776 z M 231,249.03518 c 0,-1.50132 -3.07803,-2.80156 -10.77786,-4.55285 -3.89635,-0.8862 -7.62039,-2.25727 -8.27565,-3.0468 C 211.29123,240.64599 210.15104,240 209.41274,240 c -1.71161,0 -3.87089,3.94811 -2.75538,5.03805 0.46345,0.45283 5.56764,1.70943 11.34264,2.79244 12.7399,2.38916 13,2.41327 13,1.20469 z M 279.75047,246.25 C 279.99459,245.51682 279.30531,245 278.08333,245 276.855,245 276,245.64569 276,246.57332 c 0,1.83788 3.12044,1.56887 3.75047,-0.32332 z m -109.65604,-0.86378 c 1.68221,-2.02694 1.84009,-12.84635 0.21127,-14.47826 -0.92699,-0.92874 -4.33469,-0.90194 -15.2248,0.11973 -10.80769,1.01395 -14.62135,1.04709 -16.60276,0.14431 -4.02097,-1.83208 -11.47944,-1.36697 -16.47814,1.02758 -3.89369,1.86521 -4.18943,2.20943 -2.19496,2.5548 1.26778,0.21953 2.93556,-0.12414 3.7062,-0.76371 1.42007,-1.17855 3.48876,-0.59056 3.48876,0.99162 0,0.47534 -1.18099,2.26779 -2.62443,3.98322 -1.44344,1.71543 -2.43501,3.30838 -2.2035,3.53989 0.23151,0.23152 2.87501,-0.23215 5.87443,-1.03036 6.10933,-1.62583 16.9535,-1.97417 16.9535,-0.54459 0,0.51175 -0.97725,1.07425 -2.17167,1.25 -1.19442,0.17575 -2.33844,0.82661 -2.54227,1.44634 -0.69422,2.11079 2.39426,2.1959 6.80895,0.18763 3.47437,-1.58052 4.98799,-1.79017 7.16456,-0.99239 1.83616,0.67301 3.95798,0.68057 6.34091,0.0226 3.8672,-1.06778 6.90798,-0.47636 5.90389,1.1483 -0.7021,1.13601 0.18905,3.00706 1.4322,3.00706 0.4502,0 1.42123,-0.7262 2.15786,-1.61378 z m 22.94722,-2.93641 c 1.05683,-1.2734 1.02226,-1.81447 -0.19362,-3.03035 -1.14532,-1.14532 -2.80394,-1.32458 -7.33178,-0.79242 l -5.85162,0.68774 2.72345,2.34261 c 3.16154,2.71944 8.71168,3.13226 10.65357,0.79242 z m 60.5122,0.46306 c 1.0347,-1.67419 -1.10601,-3.18979 -3.45319,-2.44482 -2.93431,0.93132 -2.68373,3.53195 0.34032,3.53195 1.34254,0 2.74333,-0.48921 3.11287,-1.08713 z M 93.68428,235.91079 c 4.01051,-1.94145 6.28504,-4.88047 2.71759,-3.51151 -0.87897,0.3373 -3.70164,-0.13384 -6.2726,-1.04696 C 84.78375,229.45376 78,230.12098 78,232.54531 78,233.5685 79.15192,234 81.88337,234 c 3.04236,0 3.99663,0.43313 4.40638,2 0.66168,2.53025 2.01722,2.5139 7.39453,-0.0892 z M 70.76088,229.75 C 70.5377,229.0625 67.3502,227.43427 63.67755,226.13172 60.0049,224.82917 57,223.42555 57,223.01256 c 0,-1.21537 6.29514,-1.88459 12.62366,-1.34198 6.50972,0.55814 9.97075,-0.958 8.85059,-3.87709 C 77.77609,215.97412 73.02828,214 69.35078,214 67.6168,214 67,214.56043 67,216.13592 c 0,1.96889 -0.36665,2.08567 -4.68831,1.49332 -4.18316,-0.57336 -4.99126,-0.35236 -7.5,2.05117 -3.09579,2.96596 -3.63323,6.39289 -1.30553,8.32471 3.26439,2.70919 18.05325,4.20472 17.25472,1.74488 z m 192.13484,-0.66439 c 1.61822,-1.02465 0.77822,-4.09291 -1.11434,-4.0703 -2.31906,0.0277 -4.08377,1.7543 -3.45848,3.38377 0.67998,1.772 2.441,2.03639 4.57282,0.68653 z M 86,225 c 0,-1.03508 -0.45,-2.16008 -1,-2.5 -0.585,-0.36155 -1,0.67595 -1,2.5 0,1.82405 0.415,2.86155 1,2.5 0.55,-0.33992 1,-1.46492 1,-2.5 z m 8,-2.67431 c 0,-1.77061 -0.96118,-1.6708 -3.17126,0.3293 C 89.82293,223.56523 89,225.21867 89,226.3293 c 0,1.93796 0.10074,1.92469 2.5,-0.3293 1.375,-1.29175 2.5,-2.94519 2.5,-3.67431 z m 132.81336,0.8473 C 227.07408,220.53294 226.78015,220 225.06336,220 223.46438,220 223,220.63767 223,222.83333 c 0,5.27922 3.29654,5.57284 3.81336,0.33966 z m -64.84854,-0.10725 C 163.19092,220.77475 163.33728,217 162.2,217 c -1.66089,0 -3.2,2.50105 -3.2,5.2 0,3.2388 1.46574,3.6668 2.96482,0.86574 z m 19.47815,-2.00273 C 183.52795,218.75914 182.74775,217 179.64098,217 c -3.1881,0 -4.78463,1.86307 -3.55899,4.1532 1.27226,2.37724 3.15668,2.34554 5.36098,-0.0902 z m -58.63113,-2.32449 C 123.04039,217.55174 122.50738,217 121.13234,217 c -2.29335,0 -3.56338,1.49355 -2.59812,3.05537 0.97327,1.57479 3.89389,0.67569 4.27762,-1.31685 z m 151.60637,-18.34551 c 1.91082,-0.73325 2.1321,-5.39301 0.2561,-5.39301 -1.71646,0 -5.90053,4.44044 -5.01679,5.32419 0.83851,0.8385 2.68535,0.8652 4.76069,0.0688 z m 94.82399,-30.36889 c 3.38179,-2.66011 3.9815,-5.53333 1.72779,-8.27777 -2.2895,-2.78801 -4.56152,-1.73548 -7.38996,3.42346 -3.31653,6.0492 0.25283,9.1093 5.66217,4.85431 z M 285,127.05902 c 0,-3.18143 -1.59084,-4.86818 -3.13501,-3.32401 C 280.80798,124.79202 282.71621,130 284.16052,130 284.62223,130 285,128.67656 285,127.05902 Z m 42.93676,-1.6449 C 326.59654,123.97732 321.675,120.05418 317,116.69603 312.325,113.33789 302.96448,106.38454 296.19885,101.24414 282.33376,90.70972 281,89.95631 281,92.65861 c 0,3.25938 3.34593,8.12061 8,11.62304 6.55147,4.93033 31.05814,21.20966 35.56512,23.62526 4.93831,2.64677 6.84841,1.23455 3.37164,-2.49279 z M 277.5,103.87803 c 0,-2.05108 -0.48121,-2.37803 -3.5,-2.37803 -2.95117,0 -3.55409,0.38324 -3.84497,2.44397 -0.49016,3.4726 2.47983,5.54242 5.28256,3.68147 1.13433,-0.75316 2.06241,-2.4395 2.06241,-3.74741 z M 386,231.2 c 0,-2.31493 1.89915,-4.2 4.23138,-4.2 2.34736,0 3.35554,2.58788 1.75805,4.51273 C 390.20042,233.66836 386,233.44904 386,231.2 Z m 19.70124,-8.8321 c -1.36736,-1.36736 -0.67281,-2.50255 1.33837,-2.18745 1.12179,0.17575 2.04556,0.76955 2.05282,1.31955 0.0161,1.2171 -2.41884,1.84026 -3.39119,0.8679 z m -14.13121,-3.25459 c -0.30141,-0.48768 0.0623,-1.39323 0.8083,-2.01233 1.01879,-0.84553 1.63602,-0.78861 2.48032,0.2287 0.6182,0.74489 0.8279,1.65043 0.46601,2.01233 -0.94334,0.94334 -3.11191,0.81125 -3.75463,-0.2287 z M 371.22251,204.4433 C 368.35384,202.434 368.3898,201 371.30887,201 c 2.96902,0 6.20636,2.35733 5.28489,3.8483 -0.97441,1.57662 -2.73121,1.44416 -5.37125,-0.405 z m 29.2406,-10.50299 c -1.2233,-1.97934 -1.74541,-36.2759 -0.59661,-39.19031 1.39232,-3.53217 4.91642,-3.64499 8.9093,-0.2852 2.43384,2.04794 3.1463,3.73375 4.21269,9.96792 1.71642,10.03429 0.97827,14.48233 -3.3911,20.43461 -1.97856,2.69534 -3.59739,5.53783 -3.59739,6.31665 0,2.99062 -4.12345,5.04333 -5.53689,2.75633 z M 290,149.5 c 0,-2.79647 2.42318,-3.44556 3.39626,-0.90976 C 294.15525,150.56815 293.33417,152 291.44098,152 290.5706,152 290,151.01005 290,149.5 Z m 103.38225,-2.75 c -3.02502,-5.89018 -5.87756,-7.75 -11.88672,-7.75 -2.97078,0 -6.58933,-0.54125 -8.04122,-1.20277 -2.35071,-1.07106 -2.83702,-0.94131 -4.44068,1.18471 -1.73694,2.30271 -1.89218,2.32766 -4.37207,0.70277 -3.56204,-2.33394 -3.74767,-2.20048 -3.04565,2.1897 0.34075,2.13092 0.20177,4.1326 -0.30884,4.44817 -1.35109,0.83502 -6.90081,-2.80345 -8.87744,-5.82016 -1.46335,-2.23335 -1.5296,-3.15863 -0.47758,-6.66996 1.51848,-5.06823 5.16399,-8.83246 8.55388,-8.83246 1.41726,0 2.83586,-0.675 3.15244,-1.5 0.97196,-2.53288 6.68045,-1.86862 9.24007,1.07521 2.37231,2.72839 9.41881,6.36604 12.40294,6.40283 0.97977,0.0121 2.04041,-0.65304 2.35699,-1.47804 0.92929,-2.42169 3.19168,-1.72933 4.85414,1.48551 0.84913,1.64204 2.61633,3.25469 3.92713,3.58368 1.69367,0.42508 3.0056,2.09301 4.53412,5.76448 l 2.15087,5.16633 -2.60808,2.25 c -3.54405,3.05746 -5.14615,2.83227 -7.1143,-1 z M 262.72917,74.395833 C 262.32812,73.994792 262,72.976667 262,72.133333 c 0,-1.125593 0.29583,-1.2375 1.1125,-0.420833 0.61187,0.611875 0.94,1.63 0.72917,2.2625 -0.21084,0.6325 -0.71146,0.821875 -1.1125,0.420833 z m -14.28302,-9.482965 c -0.94503,-1.529088 1.1059,-3.298742 2.98663,-2.577035 0.86197,0.330768 1.56722,1.290521 1.56722,2.132782 0,1.747684 -3.53514,2.092556 -4.55385,0.444253 z m -26.83316,-5.47149 c -2.56484,-3.068371 -4.51379,-4.503272 -5.96176,-4.389309 -5.93227,0.466901 -5.49934,-1.440549 1.84877,-8.145496 9.02862,-8.238366 12.46472,-9.638597 15.10795,-6.156573 2.97904,3.924391 1.01505,16.694138 -3.30108,21.463402 -2.39535,2.646834 -3.49565,2.250408 -7.69388,-2.772024 z m 17.95704,-3.328071 c -0.68055,-1.10115 1.86765,-3.342296 2.77198,-2.437964 0.36189,0.361895 0.65799,1.25799 0.65799,1.991324 0,1.489699 -2.57786,1.82538 -3.42997,0.44664 z M 200.69385,55.36052 C 199.76061,54.427277 200.88837,53 202.55902,53 203.35156,53 204,53.675 204,54.5 c 0,1.50623 -2.11099,2.055676 -3.30615,0.86052 z m 40.88838,-7.536613 C 241.35578,47.095758 240.92234,44.7 240.61901,42.5 239.2027,32.227451 228.1845,31.058636 215.99595,39.887977 210.82554,43.633401 210,43.729367 210,40.584987 c 0,-5.903279 15.57508,-14.715773 23.09093,-13.065016 6.70318,1.472266 13.71845,11.774186 12.73168,18.696463 -0.355,2.490379 -3.58501,3.714832 -4.24038,1.607473 z"
     id="vw-v1"
     inkscape:connector-curvature="0"
     inkscape:label="#vowel-icon"
     inkscape:export-xdpi="90"
     inkscape:export-ydpi="90">
    <desc
       id="desc4138">Vowel Corporation Trademark</desc>
    <title
       id="title4136">vowel logo</title>
  </path>
</svg>
